<svg width="512" height="512" viewBox="0 0 512 512" xmlns="http://www.w3.org/2000/svg">
  <defs>
    <linearGradient id="grad" x1="0%" y1="0%" x2="100%" y2="100%">
      <stop offset="0%" style="stop-color:#6366f1;stop-opacity:1" />
      <stop offset="100%" style="stop-color:#8b5cf6;stop-opacity:1" />
    </linearGradient>
  </defs>
  <rect width="512" height="512" rx="120" fill="url(#grad)"/>
  <path d="M140 180h232c22 0 40 18 40 40v152c0 22-18 40-40 40H140c-22 0-40-18-40-40V220c0-22 18-40 40-40z" fill="white" fill-opacity="0.9"/>
  <rect x="160" y="240" width="192" height="16" rx="8" fill="#6366f1"/>
  <rect x="160" y="280" width="140" height="16" rx="8" fill="#6366f1" fill-opacity="0.6"/>
  <rect x="160" y="320" width="160" height="16" rx="8" fill="#6366f1" fill-opacity="0.6"/>
  <circle cx="378" cy="150" r="40" fill="#fbbf24"/>
  <path d="M378 130v20m0 20v-20m-20 0h20m20 0h-20" stroke="white" stroke-width="4" stroke-linecap="round"/>
</svg>
